<svg width="68" height="16" viewBox="0 0 68 16" fill="none" xmlns="http://www.w3.org/2000/svg">
<g clip-path="url(#clip0_3288_960)">
<path d="M2.22534 4.66665C3.37804 2.67398 5.53252 1.33331 8.00013 1.33331C11.682 1.33331 14.6668 4.31808 14.6668 7.99998C14.6668 11.6819 11.682 14.6666 8.00013 14.6666C5.53252 14.6666 3.37804 13.326 2.22534 11.3333" stroke="#111111" stroke-width="1.3" stroke-linecap="round" stroke-linejoin="round"/>
<path d="M8 10.6666L10.6667 7.99998L8 5.33331" stroke="#111111" stroke-width="1.3" stroke-linecap="round" stroke-linejoin="round"/>
<path d="M1.33325 8L10.6666 8" stroke="#111111" stroke-width="1.3" stroke-linecap="round" stroke-linejoin="round"/>
</g>
<path d="M27.6667 14.3333L31.3663 12.9104C31.6029 12.8194 31.7212 12.7739 31.8319 12.7145C31.9302 12.6617 32.0239 12.6008 32.1121 12.5324C32.2114 12.4554 32.301 12.3657 32.4803 12.1865L40.0001 4.66665C40.7365 3.93027 40.7365 2.73636 40.0001 1.99998C39.2637 1.2636 38.0698 1.2636 37.3334 1.99998L29.8136 9.51979C29.6343 9.69906 29.5447 9.7887 29.4677 9.88795C29.3993 9.97611 29.3383 10.0698 29.2856 10.1682C29.2262 10.2789 29.1806 10.3972 29.0896 10.6338L27.6667 14.3333ZM27.6667 14.3333L29.0388 10.766C29.137 10.5107 29.1861 10.383 29.2703 10.3246C29.3439 10.2735 29.435 10.2542 29.5229 10.271C29.6236 10.2902 29.7203 10.3869 29.9137 10.5803L31.4198 12.0863C31.6132 12.2797 31.7099 12.3764 31.7291 12.4771C31.7459 12.5651 31.7266 12.6562 31.6755 12.7298C31.617 12.814 31.4894 12.8631 31.2341 12.9613L27.6667 14.3333Z" stroke="#111111" stroke-width="1.3" stroke-linecap="round" stroke-linejoin="round"/>
<path d="M58 2H62" stroke="#111111" stroke-width="1.3" stroke-linecap="round" stroke-linejoin="round"/>
<path d="M54 4H66" stroke="#111111" stroke-width="1.3" stroke-linecap="round" stroke-linejoin="round"/>
<path d="M55.3333 4L55.7338 10.0089C55.8082 11.1245 55.8454 11.6823 56.0277 12.1304C56.3587 12.9441 57.0296 13.5718 57.8635 13.8479C58.3228 14 58.8818 14 59.9999 14V14C61.118 14 61.6771 14 62.1364 13.8479C62.9702 13.5718 63.6411 12.9441 63.9721 12.1304C64.1544 11.6823 64.1916 11.1245 64.266 10.0089L64.6666 4" stroke="#111111" stroke-width="1.3" stroke-linecap="round" stroke-linejoin="round"/>
<defs>
<clipPath id="clip0_3288_960">
<rect width="16" height="16" fill="white"/>
</clipPath>
</defs>
</svg>
