<svg width="14" height="14" viewBox="0 0 14 14" fill="none" xmlns="http://www.w3.org/2000/svg">
<g clip-path="url(#clip0_124_1583)">
<path d="M1.45801 12.5417L4.69508 11.2966C4.90213 11.217 5.00565 11.1772 5.10251 11.1252C5.18854 11.079 5.27056 11.0257 5.3477 10.9659C5.43455 10.8985 5.51298 10.82 5.66984 10.6632L12.2497 4.08334C12.894 3.43901 12.894 2.39434 12.2497 1.75C11.6054 1.10567 10.5607 1.10567 9.91636 1.75L3.33651 8.32984C3.17964 8.4867 3.10121 8.56513 3.03382 8.65198C2.97396 8.72912 2.92066 8.81114 2.87448 8.89717C2.82249 8.99403 2.78267 9.09755 2.70304 9.3046L1.45801 12.5417ZM1.45801 12.5417L2.65858 9.42023C2.74449 9.19686 2.78744 9.08518 2.86112 9.03402C2.92551 8.98931 3.00518 8.9724 3.08218 8.98711C3.17029 9.00393 3.2549 9.08855 3.42412 9.25777L4.74193 10.5756C4.91115 10.7448 4.99576 10.8294 5.01259 10.9175C5.02729 10.9945 5.01038 11.0742 4.96568 11.1386C4.91452 11.2122 4.80283 11.2552 4.57947 11.3411L1.45801 12.5417Z" stroke="#111111" stroke-width="1.2" stroke-linecap="round" stroke-linejoin="round"/>
</g>
<defs>
<clipPath id="clip0_124_1583">
<rect width="14" height="14" fill="white"/>
</clipPath>
</defs>
</svg>
