
<svg viewBox="0 0 512 512"  width="30" height="30" xmlns="http://www.w3.org/2000/svg">
  <linearGradient id="a" gradientUnits="userSpaceOnUse" x1="256" x2="256" y1="436" y2="76">
    <stop offset="0" stop-color="#3E85F3"/>
    <stop offset="1" stop-color="#3E85F3"/>
  </linearGradient>
  <path d="M505.409 245.423C485.796 213.947 385.989 76 256 76 126.04 76 26.206 213.945 6.591 245.423L0 256l6.591 10.577C26.204 298.053 126.011 436 256 436c129.96 0 229.794-137.944 249.409-169.423L512 256zM256 396C155.164 396 72.138 290.246 47.892 255.984 72.093 221.694 154.906 116 256 116c100.829 0 183.851 105.739 208.108 140.016C439.907 290.307 357.094 396 256 396zm0-240c-55.141 0-100 44.86-100 100s44.859 100 100 100 100-44.86 100-100-44.859-100-100-100zm0 160c-33.084 0-60-26.916-60-60s26.916-60 60-60 60 26.916 60 60-26.916 60-60 60z" fill="url(#a)"/>
</svg>