
<svg viewBox="0 0 512 512" width="30" height="30" xmlns="http://www.w3.org/2000/svg">
  <linearGradient id="a" gradientUnits="userSpaceOnUse" x1="256" x2="256" y1="512" y2="0">
    <stop offset="0" stop-color="#009efd"/>
    <stop offset="1" stop-color="#2af598"/>
  </linearGradient>
  <path d="M436.266 161.779c-10.11-9.821-20.363-18.84-30.708-27.052L512 28.284 483.716 0 372.334 111.382a286.582 286.582 0 0 0-13.798-7.951C324.742 85.229 290.581 76 257 76c-33.561 0-67.811 9.22-101.799 27.404-26.455 14.154-52.826 33.765-78.38 58.291-43.025 41.292-69.042 82.192-70.124 83.913L0 256.267l6.712 10.649c1.082 1.716 27.102 42.494 70.131 83.661 9.919 9.49 19.962 18.231 30.083 26.213L0 483.716 28.284 512l111.918-111.918a292.753 292.753 0 0 0 15.022 8.604C189.206 426.81 223.448 436 257 436c33.571 0 67.725-9.198 101.513-27.34 26.305-14.124 52.458-33.694 77.73-58.167 42.546-41.198 68.21-82.013 69.272-83.73L512 256.266l-6.47-10.505c-1.061-1.722-26.722-42.659-69.264-83.982zM135.458 348.258c-42.446-32.577-74.079-73.124-87.613-92.042C72.328 221.791 155.924 116 257 116c30.805 0 59.88 9.901 86.099 24.617l-31.588 31.588C295.82 161.963 277.095 156 257 156c-55.14 0-100 44.86-100 100 0 20.095 5.963 38.82 16.205 54.511zm175.345-118.777A59.626 59.626 0 0 1 317 256c0 33.084-26.916 60-60 60a59.626 59.626 0 0 1-26.519-6.197zm-108.251 51.683A59.623 59.623 0 0 1 197 256c0-33.084 26.916-60 60-60a59.623 59.623 0 0 1 25.164 5.552zM257 396c-31.253 0-60.856-10.141-87.564-25.152l31.847-31.847C217.216 349.73 236.389 356 257 356c55.14 0 100-44.86 100-100 0-20.611-6.27-39.784-16.999-55.716l37.036-37.036c42.503 32.839 74.087 73.991 87.394 93.001C440.51 290.404 358.11 396 257 396z" fill="url(#a)"/>
</svg>

