<svg xmlns="http://www.w3.org/2000/svg" width="24" height="24" viewBox="0 0 30 30" fill="none">
<path d="M23.8 9.037c0-0.759 0.001-1.305 0.038-1.732 0.037-0.436 0.103-0.596 0.134-0.648 0.008-0.013 0.011-0.016 0.015-0.019l0.001-0c0.009-0.006 0.045-0.031 0.138-0.060 0.208-0.064 0.569-0.112 1.207-0.112s1 0.048 1.207 0.112c0.093 0.029 0.129 0.053 0.138 0.060l0.001 0c0.004 0.003 0.007 0.005 0.015 0.019 0.031 0.052 0.097 0.212 0.134 0.648 0.037 0.427 0.037 0.973 0.037 1.732v13.926c0 0.896-0.051 1.503-0.135 1.915-0.084 0.414-0.182 0.531-0.199 0.548-0.006 0.006-0.011 0.011-0.029 0.020-0.023 0.011-0.072 0.029-0.169 0.046-0.221 0.038-0.511 0.041-1.002 0.041-0.499 0-0.793-0.003-1.015-0.042-0.097-0.017-0.146-0.035-0.168-0.045-0.016-0.008-0.020-0.012-0.025-0.017-0.015-0.016-0.112-0.131-0.195-0.547-0.082-0.413-0.132-1.022-0.132-1.92v-13.926zM25.333 4.2c-1.288 0-2.612 0.136-3.305 1.291-0.302 0.504-0.403 1.084-0.449 1.621-0.046 0.535-0.046 1.177-0.046 1.884v13.968c0 0.954 0.050 1.734 0.175 2.363 0.125 0.625 0.343 1.205 0.761 1.652 0.439 0.47 0.975 0.664 1.466 0.748 0.435 0.075 0.92 0.074 1.344 0.074h0.107c0.418 0 0.9 0 1.333-0.074 0.489-0.084 1.023-0.278 1.463-0.745 0.42-0.445 0.643-1.023 0.77-1.651 0.128-0.63 0.18-1.412 0.18-2.367v-13.968c0-0.706 0-1.349-0.046-1.884-0.046-0.536-0.147-1.117-0.449-1.621-0.693-1.155-2.017-1.291-3.305-1.291zM14.505 12.667c-0.033 0.301-0.035 0.651-0.035 1.111v9.778c0 0.011-0 0.022-0 0.033-0.033 1.146 0.175 1.533 0.299 1.666 0.107 0.115 0.376 0.279 1.23 0.279 0.834 0 1.112-0.162 1.226-0.283 0.127-0.134 0.34-0.522 0.303-1.658-0-0.012-0.001-0.024-0.001-0.036v-9.778c0-0.461-0.001-0.811-0.035-1.111-0.033-0.296-0.089-0.448-0.137-0.529l-0.002-0.003c-0.031-0.053-0.198-0.335-1.356-0.335s-1.324 0.282-1.356 0.335l-0.002 0.003c-0.049 0.081-0.104 0.232-0.137 0.529zM12.698 10.973c0.639-1.066 1.819-1.44 3.302-1.44s2.663 0.374 3.302 1.44c0.284 0.475 0.395 0.99 0.445 1.444 0.049 0.438 0.049 0.908 0.049 1.328v9.793c0.039 1.301-0.16 2.461-0.921 3.268-0.777 0.823-1.869 0.995-2.875 0.995-1.015 0-2.112-0.169-2.887-0.999-0.754-0.808-0.944-1.97-0.909-3.261v-9.795c-0-0.42-0-0.89 0.049-1.328 0.050-0.454 0.161-0.969 0.445-1.444zM5.169 19.359c-0.035 0.352-0.036 0.776-0.036 1.344v3.689c0 0.641 0.155 0.816 0.23 0.88 0.122 0.103 0.453 0.261 1.303 0.261 0.832 0 1.167-0.156 1.296-0.264 0.081-0.068 0.237-0.247 0.237-0.877v-3.669l-0.009-0.27c-0.015-0.439-0.026-0.782-0.059-1.085-0.039-0.363-0.099-0.533-0.146-0.616l-0.001-0.002c-0.012-0.027-0.127-0.285-1.319-0.285-1.196 0-1.336 0.261-1.355 0.297l-0.001 0.003c-0.046 0.078-0.106 0.242-0.141 0.593zM3.356 17.618c0.654-1.112 1.877-1.418 3.31-1.418 1.436 0 2.648 0.308 3.288 1.431 0.276 0.485 0.379 1.020 0.43 1.495 0.043 0.395 0.057 0.841 0.072 1.281 0.003 0.086 0.006 0.172 0.009 0.257l0 0.013 0 0.027v3.689c0 0.991-0.256 1.949-1.047 2.613-0.744 0.624-1.741 0.795-2.753 0.795-1.021 0-2.024-0.169-2.767-0.798-0.79-0.669-1.033-1.63-1.033-2.61v-3.725c-0-0.522-0-1.056 0.047-1.532 0.048-0.487 0.155-1.029 0.442-1.517z">
</path>
</svg>