<svg xmlns="http://www.w3.org/2000/svg" viewBox="0 0 64 80" width="30" height="30">
  <path d="M32 51.09a26.344 26.344 0 0 0 9.276-1.752 31.793 31.793 0 0 0 4.02-1.82l5.443 5.443a1.5 1.5 0 1 0 2.121-2.121L38.726 36.705l-.001-.002-.002-.001L13.06 11.039a1.5 1.5 0 1 0-2.122 2.121l5.069 5.068a38.648 38.648 0 0 0-2.765 1.925C8.06 24.157 4 29.404 4 32.1c0 4.514 12.915 18.99 28 18.99Zm-5.53-22.398L35.4 37.62a6.366 6.366 0 0 1-2.674.938A6.811 6.811 0 0 1 32 38.6a6.493 6.493 0 0 1-5.53-9.908Zm-11.395-6.164a35.522 35.522 0 0 1 3.112-2.12l6.125 6.125A9.49 9.49 0 0 0 32 41.6a9.928 9.928 0 0 0 1.04-.059 9.503 9.503 0 0 0 4.53-1.75l5.498 5.499a28.059 28.059 0 0 1-2.837 1.235A23.369 23.369 0 0 1 32 48.09c-13.918 0-24.973-13.508-25-15.99 0-.918 2.483-5.251 8.075-9.572ZM32 13.11a26.728 26.728 0 0 0-9.302 1.734 1.5 1.5 0 0 0 1.043 2.812A23.76 23.76 0 0 1 32 16.11c14.017 0 25 13.506 25 15.984-.049.918-2.626 5.241-8.14 9.532a1.5 1.5 0 1 0 1.841 2.367C55.83 40.003 60 34.67 60 32.1c0-4.515-12.915-18.99-28-18.99Z"/>
</svg>
