<svg xmlns="http://www.w3.org/2000/svg" aria-hidden="true" style="position:absolute;width:0;height:0;overflow:hidden">
<defs>
<symbol id="icon-arrow-up" viewBox="0 0 20 20"><path d="M14.756 8.578l-4.167-4.167c-0.326-0.326-0.853-0.326-1.178 0l-4.167 4.167c-0.326 0.326-0.326 0.853 0 1.178s0.853 0.326 1.178 0l3.578-3.577 3.577 3.577c0.326 0.326 0.853 0.326 1.178 0s0.326-0.853 0-1.178zM14.756 14.411l-4.167-4.167c-0.326-0.326-0.853-0.326-1.178 0l-4.167 4.167c-0.326 0.326-0.326 0.853 0 1.178s0.853 0.326 1.178 0l3.578-3.578 3.577 3.578c0.326 0.326 0.853 0.326 1.178 0s0.326-0.853 0-1.178z"></path></symbol>
</defs>
</svg>
