<svg viewBox="0 0 512 512" width="30" height="30" xmlns="http://www.w3.org/2000/svg">
  <path d="M449.204 350.994h-12.219V132.416C436.986 59.285 377.701 0 304.569 0h-97.138C134.299 0 75.014 59.285 75.014 132.417V350.995H62.796c-23.014 0-41.67 18.657-41.67 41.67 0 23.014 18.656 41.671 41.67 41.671h386.409c23.014 0 41.67-18.657 41.67-41.671s-18.657-41.671-41.671-41.671z" fill="#b16e3d"/>
  <path d="M173.449 281.852 291.735 434.34H62.801c-11.509 0-21.921-4.664-29.471-12.202-7.538-7.549-12.202-17.962-12.202-29.471 0-23.006 18.656-41.673 41.673-41.673h12.213V132.417C75.014 59.293 134.303.004 207.438.004h97.137c.213 0 .436 0 .649.011-72.833.336-131.775 59.49-131.775 132.401z" fill="#985e33"/>
  <path d="M390.339 512H121.667l6.554-31.92c5.391-26.283 25.87-46.259 51.281-51.639a66.18 66.18 0 0 1 13.802-1.443h125.4c4.709 0 9.328.492 13.79 1.443 25.411 5.38 45.901 25.355 51.292 51.639z" fill="#f4dd45"/>
  <path d="M218.754 426.998c-2.796 0-5.536.492-8.187 1.443-15.099 5.38-27.257 25.355-30.466 51.639L176.208 512h-54.547l6.554-31.92c5.391-26.283 25.87-46.259 51.281-51.639a66.18 66.18 0 0 1 13.802-1.443z" fill="#eab14d"/>
  <path d="M293.169 364.925v62.074c0 20.523-16.642 37.166-37.166 37.166-20.535 0-37.177-16.642-37.177-37.166v-62.074z" fill="#ffcbbe"/>
  <path d="M268.141 462.138a37.218 37.218 0 0 1-12.135 2.024c-20.535 0-37.177-16.642-37.177-37.166v-62.074h24.27v62.074c0 16.285 10.469 30.12 25.042 35.142zM100.721 313.237c-26.799 0-48.525-21.725-48.525-48.525 0-3.688.412-7.281 1.191-10.733 6.295-27.879 47.334-23.307 47.334 5.274h310.558c0-28.581 41.039-33.153 47.334-5.274a48.665 48.665 0 0 1 1.191 10.733c0 26.799-21.725 48.525-48.525 48.525" fill="#eaac9d"/>
  <path d="M100.728 282.347a7.717 7.717 0 0 1-6.321-3.275c-.172-.237-8.048-10.998-16.501-7.583a7.728 7.728 0 0 1-5.781-14.331c15.912-6.416 29.445 5.177 34.933 13.04a7.726 7.726 0 0 1-6.33 12.149zM411.273 282.323a7.671 7.671 0 0 1-4.438-1.409c-3.473-2.452-4.325-7.23-1.892-10.716 5.488-7.864 19.019-19.46 34.933-13.04a7.728 7.728 0 0 1-5.781 14.331c-8.506-3.432-16.424 7.475-16.504 7.586a7.75 7.75 0 0 1-6.318 3.248z" fill="#df9380"/>
  <path d="M218.826 364.925h74.343v57.186h-74.343z" fill="#eaac9d"/>
  <path d="M411.271 203.969v85.293c0 62.499-50.666 113.175-113.175 113.175h-84.208c-62.499 0-113.175-50.666-113.175-113.175v-84.319c19.271-.559 45.789-3.847 74.354-9.652 58.539-11.9 125.735-34.392 156.996-65.653 0 0 30.925 63.192 79.208 74.331z" fill="#ffcbbe"/>
  <path d="M288.242 402.437h-74.354c-62.499 0-113.175-50.666-113.175-113.175v-84.319c19.271-.559 45.789-3.847 74.354-9.652v93.972c0 62.498 50.665 113.174 113.175 113.174z" fill="#eaac9d"/>
  <g fill="#e490b7">
    <ellipse cx="347.467" cy="297.305" rx="25.418" ry="15.456"/>
    <ellipse cx="164.533" cy="297.305" rx="25.418" ry="15.456"/>
  </g>
  <path d="M271.121 279.34h-30.242a7.726 7.726 0 1 1 0-15.452h30.242a7.726 7.726 0 1 1 0 15.452z" fill="#eaac9d"/>
  <g fill="#454045">
    <path d="M176.337 225.641c-.512 0-1.038.046-1.521.134h-16.802c-4.767 0-8.646 3.879-8.646 8.646 0 4.768 3.879 8.646 8.646 8.646h4.175a39.624 39.624 0 0 0-.618 7.012c0 13.475 6.624 24.439 14.766 24.439s14.766-10.963 14.766-24.439-6.624-24.438-14.766-24.438zM355.103 225.776l-17.876.004a9.124 9.124 0 0 0-1.565-.138c-8.142 0-14.766 10.963-14.766 24.438s6.624 24.439 14.766 24.439 14.766-10.963 14.766-24.439c0-2.38-.208-4.737-.618-7.012h5.293c4.767 0 8.646-3.878 8.646-8.646s-3.879-8.646-8.646-8.646z"/>
  </g>
  <path d="m235.639 381.398-24.705-24.705L276.33 291.3l24.704 24.704z" fill="#e7ecf1"/>
  <path d="m210.878 315.93 24.705-24.704 65.394 65.395-24.704 24.704z" fill="#fff"/>
</svg>
